<svg width="24" height="32" viewBox="0 0 24 32" fill="none" xmlns="http://www.w3.org/2000/svg">
<g clip-path="url(#clip0_4_106)">
<path d="M20.125 13H0.875C0.391751 13 0 13.597 0 14.3333C0 15.0697 0.391751 15.6667 0.875 15.6667H20.125C20.6082 15.6667 21 15.0697 21 14.3333C21 13.597 20.6082 13 20.125 13Z" fill="#883F39"/>
<path d="M23 5.33333H0.999997C0.447712 5.33333 -2.86102e-06 5.93029 -2.86102e-06 6.66667C-2.86102e-06 7.40305 0.447712 8 0.999997 8H23C23.5523 8 24 7.40305 24 6.66667C24 5.93029 23.5523 5.33333 23 5.33333Z" fill="#883F39"/>
<path d="M17.25 20.6667H0.75C0.335786 20.6667 0 21.3382 0 22.1667C0 22.9951 0.335786 23.6667 0.75 23.6667H17.25C17.6642 23.6667 18 22.9951 18 22.1667C18 21.3382 17.6642 20.6667 17.25 20.6667Z" fill="#883F39"/>
</g>
<defs>
<clipPath id="clip0_4_106">
<rect width="24" height="32" fill="white"/>
</clipPath>
</defs>
</svg>
